<svg width="178" height="38" viewBox="0 0 178 38" fill="none" xmlns="http://www.w3.org/2000/svg">
<rect x="1.30074" y="0.335801" width="175.399" height="37.3284" rx="18.6642" stroke="white" stroke-opacity="0.4" stroke-width="0.649446"/>
<circle cx="25.0055" cy="19" r="5.84502" fill="#12E600"/>
<path d="M44.0343 23L46.3821 15.986H47.59L49.9378 23H49.0367L46.8399 16.4925H47.1127L44.9354 23H44.0343ZM45.1643 21.3585V20.5451H48.8077V21.3585H45.1643ZM52.8135 23L50.4657 15.986H51.3668L53.4077 22.0794L55.4681 15.986H56.3692L54.0215 23H52.8135ZM56.904 23L59.2518 15.986H60.4597L62.8075 23H61.9064L59.7096 16.4925H59.9824L57.8051 23H56.904ZM58.034 21.3585V20.5451H61.6774V21.3585H58.034ZM64.751 23V15.986H65.618V23H64.751ZM68.1511 23V15.986H69.0181V22.1768H72.2718V23H68.1511ZM73.5829 23L75.9306 15.986H77.1386L79.4863 23H78.5852L76.3885 16.4925H76.6612L74.484 23H73.5829ZM74.7129 21.3585V20.5451H78.3563V21.3585H74.7129ZM81.3325 23V15.986H84.065C84.4839 15.986 84.8411 16.072 85.1366 16.2441C85.4353 16.4162 85.6626 16.6435 85.8185 16.926C85.9776 17.2053 86.0572 17.5073 86.0572 17.832C86.0572 18.2119 85.9598 18.5448 85.7649 18.8305C85.5701 19.1163 85.3071 19.3128 84.9758 19.4199L84.9661 19.1812C85.4175 19.3014 85.7682 19.5222 86.0182 19.8437C86.2682 20.1652 86.3933 20.5483 86.3933 20.9932C86.3933 21.4023 86.3088 21.7563 86.14 22.055C85.9744 22.3538 85.7341 22.586 85.4191 22.7516C85.1074 22.9172 84.7372 23 84.3085 23H81.3325ZM82.2092 22.1719H84.1429C84.4027 22.1719 84.6349 22.1249 84.8395 22.0307C85.044 21.9333 85.2048 21.7969 85.3217 21.6215C85.4418 21.4462 85.5019 21.2351 85.5019 20.9883C85.5019 20.7513 85.4483 20.5386 85.3412 20.3502C85.2373 20.1619 85.0895 20.0125 84.8979 19.9021C84.7096 19.7885 84.4904 19.7316 84.2404 19.7316H82.2092V22.1719ZM82.2092 18.9133H84.0553C84.2631 18.9133 84.4498 18.8695 84.6154 18.7818C84.7843 18.6909 84.9174 18.5643 85.0148 18.4019C85.1155 18.2395 85.1658 18.0496 85.1658 17.832C85.1658 17.53 85.0635 17.2832 84.8589 17.0916C84.6544 16.9001 84.3865 16.8043 84.0553 16.8043H82.2092V18.9133ZM88.4355 23V15.986H89.3025V22.1768H92.5563V23H88.4355ZM94.3544 23V15.986H98.7868V16.8091H95.2214V19.0059H98.2023V19.8291H95.2214V22.1768H98.7868V23H94.3544ZM103.856 23V15.986H107.948V16.853H104.723V19.0595H107.363V19.9265H104.723V23H103.856ZM112.68 23.1461C111.982 23.1461 111.389 22.9919 110.902 22.6834C110.415 22.3749 110.043 21.9463 109.787 21.3975C109.533 20.8487 109.407 20.2139 109.407 19.493C109.407 18.7721 109.533 18.1373 109.787 17.5885C110.043 17.0397 110.415 16.6111 110.902 16.3026C111.389 15.9941 111.982 15.8398 112.68 15.8398C113.381 15.8398 113.976 15.9941 114.463 16.3026C114.95 16.6111 115.32 17.0397 115.573 17.5885C115.827 18.1373 115.953 18.7721 115.953 19.493C115.953 20.2139 115.827 20.8487 115.573 21.3975C115.32 21.9463 114.95 22.3749 114.463 22.6834C113.976 22.9919 113.381 23.1461 112.68 23.1461ZM112.68 22.3181C113.203 22.3213 113.638 22.2044 113.985 21.9674C114.336 21.7271 114.598 21.3942 114.77 20.9688C114.945 20.5435 115.033 20.0515 115.033 19.493C115.033 18.9312 114.945 18.4392 114.77 18.0171C114.598 17.595 114.336 17.2654 113.985 17.0283C113.638 16.7913 113.203 16.6711 112.68 16.6679C112.157 16.6646 111.722 16.7815 111.375 17.0186C111.03 17.2556 110.771 17.5868 110.595 18.0122C110.42 18.4376 110.331 18.9312 110.327 19.493C110.324 20.0515 110.41 20.5418 110.586 20.964C110.761 21.3861 111.022 21.7173 111.37 21.9576C111.72 22.1947 112.157 22.3148 112.68 22.3181ZM117.906 23V15.986H120.677C120.745 15.986 120.827 15.9892 120.921 15.9957C121.015 15.999 121.106 16.0087 121.194 16.0249C121.573 16.0834 121.892 16.2133 122.148 16.4146C122.408 16.6159 122.603 16.8708 122.733 17.1793C122.863 17.4846 122.928 17.8239 122.928 18.1973C122.928 18.7396 122.786 19.2105 122.504 19.6099C122.221 20.006 121.807 20.2544 121.262 20.3551L120.93 20.4087H118.773V23H117.906ZM122.08 23L120.697 20.1457L121.554 19.8826L123.074 23H122.08ZM118.773 19.5855H120.648C120.71 19.5855 120.779 19.5823 120.857 19.5758C120.939 19.5693 121.015 19.5579 121.086 19.5417C121.31 19.4897 121.492 19.3956 121.632 19.2592C121.775 19.1195 121.879 18.9572 121.944 18.7721C122.009 18.5837 122.041 18.3922 122.041 18.1973C122.041 18.0025 122.009 17.8125 121.944 17.6274C121.879 17.4391 121.775 17.2751 121.632 17.1355C121.492 16.9959 121.31 16.9017 121.086 16.853C121.015 16.8335 120.939 16.8221 120.857 16.8189C120.779 16.8124 120.71 16.8091 120.648 16.8091H118.773V19.5855ZM129.54 23L127.509 15.986H128.415L129.974 21.5339L131.528 15.9908L132.439 15.986L133.997 21.5339L135.551 15.986H136.462L134.431 23H133.564L131.986 17.5008L130.407 23H129.54ZM140.959 23.1461C140.261 23.1461 139.669 22.9919 139.182 22.6834C138.695 22.3749 138.323 21.9463 138.066 21.3975C137.813 20.8487 137.686 20.2139 137.686 19.493C137.686 18.7721 137.813 18.1373 138.066 17.5885C138.323 17.0397 138.695 16.6111 139.182 16.3026C139.669 15.9941 140.261 15.8398 140.959 15.8398C141.661 15.8398 142.255 15.9941 142.742 16.3026C143.229 16.6111 143.599 17.0397 143.853 17.5885C144.106 18.1373 144.233 18.7721 144.233 19.493C144.233 20.2139 144.106 20.8487 143.853 21.3975C143.599 21.9463 143.229 22.3749 142.742 22.6834C142.255 22.9919 141.661 23.1461 140.959 23.1461ZM140.959 22.3181C141.482 22.3213 141.917 22.2044 142.265 21.9674C142.616 21.7271 142.877 21.3942 143.049 20.9688C143.224 20.5435 143.312 20.0515 143.312 19.493C143.312 18.9312 143.224 18.4392 143.049 18.0171C142.877 17.595 142.616 17.2654 142.265 17.0283C141.917 16.7913 141.482 16.6711 140.959 16.6679C140.437 16.6646 140.002 16.7815 139.654 17.0186C139.31 17.2556 139.05 17.5868 138.875 18.0122C138.699 18.4376 138.61 18.9312 138.607 19.493C138.604 20.0515 138.69 20.5418 138.865 20.964C139.04 21.3861 139.302 21.7173 139.649 21.9576C140 22.1947 140.437 22.3148 140.959 22.3181ZM146.185 23V15.986H148.957C149.025 15.986 149.106 15.9892 149.2 15.9957C149.294 15.999 149.385 16.0087 149.473 16.0249C149.853 16.0834 150.171 16.2133 150.428 16.4146C150.687 16.6159 150.882 16.8708 151.012 17.1793C151.142 17.4846 151.207 17.8239 151.207 18.1973C151.207 18.7396 151.066 19.2105 150.783 19.6099C150.501 20.006 150.087 20.2544 149.541 20.3551L149.21 20.4087H147.052V23H146.185ZM150.359 23L148.976 20.1457L149.833 19.8826L151.353 23H150.359ZM147.052 19.5855H148.927C148.989 19.5855 149.059 19.5823 149.137 19.5758C149.218 19.5693 149.294 19.5579 149.366 19.5417C149.59 19.4897 149.772 19.3956 149.911 19.2592C150.054 19.1195 150.158 18.9572 150.223 18.7721C150.288 18.5837 150.32 18.3922 150.32 18.1973C150.32 18.0025 150.288 17.8125 150.223 17.6274C150.158 17.4391 150.054 17.2751 149.911 17.1355C149.772 16.9959 149.59 16.9017 149.366 16.853C149.294 16.8335 149.218 16.8221 149.137 16.8189C149.059 16.8124 148.989 16.8091 148.927 16.8091H147.052V19.5855ZM153.4 23V15.986H154.267V19.2787L157.336 15.986H158.427L155.241 19.3907L158.675 23H157.555L154.267 19.5709V23H153.4Z" fill="white"/>
</svg>
