<svg width="36" height="36" viewBox="0 0 36 36" fill="none" xmlns="http://www.w3.org/2000/svg">
<path fill-rule="evenodd" clip-rule="evenodd" d="M18 3.27273C9.86635 3.27273 3.27273 9.86635 3.27273 18C3.27273 26.1336 9.86635 32.7273 18 32.7273C26.1336 32.7273 32.7273 26.1336 32.7273 18C32.7273 9.86635 26.1336 3.27273 18 3.27273ZM0 18C0 8.05887 8.05887 0 18 0C27.9411 0 36 8.05887 36 18C36 27.9411 27.9411 36 18 36C8.05887 36 0 27.9411 0 18Z" fill="#D9D9D9"/>
<path fill-rule="evenodd" clip-rule="evenodd" d="M11.4107 1.53853C12.1425 1.00821 13.1656 1.17151 13.6959 1.90329C16.3076 5.50701 18.3574 8.57596 20.0666 11.6907C23.3747 10.3079 26.0974 8.34941 28.4237 5.62911C29.011 4.94227 30.044 4.86163 30.7308 5.44899C31.4177 6.03636 31.4983 7.0693 30.9109 7.75614C28.2516 10.8659 25.1649 13.0699 21.5618 14.6124C21.668 14.836 21.7729 15.0607 21.8766 15.2867C22.1213 15.8204 22.3586 16.3604 22.5896 16.9094C26.0585 16.4101 30.0864 16.6535 34.3748 17.793C35.2482 18.025 35.7682 18.9212 35.5361 19.7947C35.304 20.6681 34.4078 21.188 33.5344 20.9559C29.9236 19.9965 26.619 19.7596 23.8109 20.0551C24.9749 23.3051 26.0101 26.9687 27.1013 31.4748C27.3141 32.3531 26.7744 33.2376 25.8961 33.4503C25.0177 33.663 24.1333 33.1234 23.9206 32.245C22.7892 27.5733 21.7373 23.8984 20.5606 20.6917C20.3261 20.7621 20.0973 20.8369 19.8744 20.916C16.0644 22.2748 12.3369 25.1794 8.49005 30.6567C7.97064 31.3963 6.95004 31.5748 6.21048 31.0554C5.47091 30.536 5.29243 29.5154 5.81184 28.7758C9.91751 22.9299 14.1425 19.4853 18.7759 17.8331L18.7781 17.8324C18.9641 17.7663 19.1527 17.703 19.3439 17.6423C19.1991 17.3083 19.0518 16.9781 18.9017 16.6508C18.7614 16.3449 18.6185 16.0412 18.4728 15.7391C13.8295 17.1671 8.41712 17.7497 2.08464 17.9012C1.18116 17.9229 0.431216 17.208 0.409596 16.3045C0.387977 15.401 1.10287 14.6511 2.00635 14.6295C7.95055 14.4872 12.8382 13.9575 16.9302 12.7836C15.3661 9.99777 13.4775 7.17901 11.0459 3.82377C10.5156 3.092 10.6789 2.06886 11.4107 1.53853Z" fill="#D9D9D9"/>
</svg>
